# xmcd
#
# Track frame offsets:
#	150
#	15798
#	30258
#	47962
#	69351
#	86773
#	103348
#	120623
#	136889
#
# Disc length: 2058 seconds
#
# Revision: 1
# Processed by: cddbd v1.5.2PL0 Copyright (c) Steve Scherf et al.
# Submitted via: audiograbber 1.83.01
#
DISCID=6b080809
DTITLE=Various Artist - ASK1311A
DYEAR=2013
DGENRE=KARAOKE
TTITLE0=LUKE BRYAN - DRINK A BEER
TTITLE1=THOMAS RHETT - GIVE ME SOME OF THAT
TTITLE2=FRANKIE BALLARD - HELLUVA LIFE
TTITLE3=BRAD PAISLEY - I CAN'T CHANGE THE WORLD
TTITLE4=JOHN NEWMAN - LOVE ME AGAIN
TTITLE5=ELLE KING - PLAYING FOR KEEPS
TTITLE6=GREAT BIG WORLD/CHRISTINA AGUILERA - SAY SOMETHING
TTITLE7=SELENA GOMEZ - SLOW DOWN
TTITLE8=LANA DEL REY - SUMMERTIME SADNESS
EXTD=
EXTT0=
EXTT1=
EXTT2=
EXTT3=
EXTT4=
EXTT5=
EXTT6=
EXTT7=
EXTT8=
PLAYORDER=
